<svg xmlns="http://www.w3.org/2000/svg" fill="1"  stroke="rgb(0,0,0)" class="w-6 h-6" viewBox="0 0 511 511.59">
<path d="M388.47 22.28c-24.22 14.1-48.56 34.31-72.97 58.5l114.31 114.31c21.95-18.04 38.4-36.45 50.74-55.14 34.99-53.02 31.49-81.02 28.96-139.7-49.43 0-75.92-4.24-121.04 22.03zM36.26 361.51l1.23 1.23 32.03-32.03-4.43-4.44c-8.4-8.39-8.41-22.14 0-30.55l184.45-184.45c8.4-8.41 22.15-8.41 30.55 0L400.33 231.5c8.4 8.4 8.39 22.15 0 30.55L215.87 446.51c-8.4 8.4-22.15 8.4-30.55 0l-4.44-4.44-32.02 32.03 1.23 1.24c8.26 8.26 8.26 21.79 0 30.05-8.27 8.27-21.8 8.27-30.06 0L6.2 391.57c-8.27-8.27-8.27-21.8 0-30.06 8.27-8.27 21.79-8.27 30.06 0z"/>
</svg>  